<svg width="194" height="196" viewBox="0 0 194 196" fill="none" xmlns="http://www.w3.org/2000/svg">
<path d="M128.659 153.326C102.244 149.345 81.2807 117.251 62.498 98.3566C43.6519 79.3282 24.638 71.9961 -0.000286698 61.7721C46.7842 44.9541 100.43 48.4381 144.771 71.2303C154.712 76.3264 164.366 82.5403 171.529 91.0826C178.889 99.695 183.287 111.023 181.678 122.094C179.999 133.363 172.072 143.181 162.053 148.594C152.034 154.006 139.987 155.146 128.659 153.326Z" fill="url(#paint0_linear)"/>
<path d="M88.7246 52.022C89.9726 52.1318 91.2206 52.2637 92.4686 52.3735C94.9431 52.6152 97.4607 52.6372 99.8921 53.1206C105.594 54.2632 110.07 59.8662 110.221 65.7987C110.264 67.4027 110.242 69.0287 110.242 70.6327C110.242 71.9291 109.898 73.0936 109.123 74.1483C108.241 75.3788 107.144 76.5653 106.713 77.9496C106.304 79.3119 106.627 80.9158 106.606 82.41C106.563 84.5633 106.67 86.7605 106.433 88.8919C106.175 91.3528 104.798 93.2644 102.711 94.5168C100.624 95.7912 98.515 97.0657 96.3202 98.1203C93.5445 99.4387 90.5966 99.4387 87.8209 98.1203C85.583 97.0217 83.3883 95.7253 81.2365 94.385C78.8911 92.9568 77.6216 90.7156 77.5355 87.9251C77.4279 84.827 77.514 81.7069 77.471 78.6087C77.471 78.1693 77.3203 77.6859 77.0836 77.3124C76.0508 75.7303 74.9319 74.1923 73.9206 72.6102C73.5763 72.0609 73.189 71.4017 73.1675 70.7865C73.0168 68.0839 72.7586 65.3373 73.7269 62.7006C75.2547 58.6577 78.1165 56.1748 82.2909 55.3179C82.8718 55.208 83.2376 55.0322 83.4958 54.417C84.0553 53.0767 85.2172 52.4614 86.4868 52C87.2399 52.022 87.9715 52.022 88.7246 52.022ZM85.8412 68.5014C83.9047 71.4457 83.9047 71.4457 80.1176 72.808C80.1176 72.9398 80.0746 73.0717 80.0746 73.2255C80.0746 77.9715 80.053 82.7176 80.0746 87.4637C80.0746 89.7268 81.1289 91.3748 83.0225 92.4734C84.7654 93.4841 86.5083 94.5168 88.2942 95.4397C90.8333 96.78 93.4369 96.758 95.976 95.4177C97.6974 94.4949 99.3757 93.4841 101.076 92.4954C103.077 91.3308 104.067 89.595 104.045 87.2439C104.045 82.7615 104.045 78.2791 104.045 73.7967C104.045 71.204 102.646 69.7538 100.129 69.7538C97.0088 69.7538 93.8673 69.7318 90.7472 69.7538C89.0258 69.7538 87.369 69.5121 85.8412 68.5014ZM106.799 72.8519C107.531 72.0389 107.66 71.7753 107.681 70.6327C107.703 69.1386 107.724 67.6444 107.681 66.1503C107.552 62.371 105.917 59.4267 102.905 57.2734C101.312 56.1308 99.5263 55.5156 97.6113 55.3838C94.3837 55.1421 91.1561 54.9223 87.9069 54.7026C86.6159 54.6147 85.8843 55.0542 85.6261 56.0649C85.2603 57.603 85.1097 57.7348 83.5604 57.8227C80.2897 57.9985 77.1697 60.5473 76.1154 63.7114C75.4913 65.601 75.728 67.5346 75.6205 69.4462C75.5344 71.0062 76.6318 71.8632 77.4279 73.1815C77.471 72.786 77.4925 72.6761 77.4925 72.5663C77.557 70.2372 77.557 70.2372 79.7518 70.0614C81.5378 69.9296 82.9794 68.831 83.4313 67.1391C83.5389 66.7436 83.4958 66.1943 83.3022 65.8207C82.5706 64.4365 82.2478 62.9863 82.2909 61.4262C82.3124 60.5034 82.7642 59.9321 83.4958 59.8881C84.249 59.8442 84.8084 60.4155 84.873 61.3603C84.916 61.9316 84.8945 62.5468 85.0236 63.0961C85.6476 65.623 87.5626 67.0732 90.2523 67.0951C93.5875 67.1171 96.9012 67.1171 100.236 67.0951C102.41 67.0951 104.26 67.8642 105.465 69.7318C106.089 70.6766 106.39 71.8412 106.799 72.8519Z" fill="#04C0C0"/>
<path d="M92.1888 104.932C95.3519 101.965 98.4504 99.087 101.549 96.2086C102.883 94.9562 103.529 94.9342 104.497 96.4943C105.53 98.1422 106.842 98.8673 108.736 99.0431C112.824 99.4386 116.245 101.24 118.784 104.624C120.786 107.283 121.689 110.293 121.689 113.633C121.689 115.193 121.689 116.731 121.689 118.291C121.668 119.675 121.28 120.093 119.946 120.093C101.312 120.093 82.6566 120.093 64.0225 120.093C62.7314 120.093 62.2796 119.675 62.3226 118.357C62.4087 115.588 62.2365 112.754 62.753 110.051C63.8503 104.295 68.4981 100.054 74.2002 99.131C75.1685 98.9772 76.1153 98.7355 77.0836 98.6915C78.0519 98.6476 78.6759 98.2081 79.1708 97.3951C79.4505 96.9337 79.8163 96.4943 80.1606 96.0768C80.9137 95.11 81.6022 95.066 82.549 95.9449C85.3678 98.5597 88.1866 101.196 91.0054 103.833C91.3927 104.185 91.7585 104.536 92.1888 104.932ZM88.122 117.39C88.3372 115.544 88.5739 113.809 88.7245 112.073C88.746 111.743 88.5094 111.37 88.4018 111.018C88.1866 111.084 88.122 111.106 88.079 111.128C87.3904 111.655 86.7019 112.183 86.0133 112.71C84.6792 113.743 84.0337 113.567 83.3021 112.007C81.882 108.931 80.4618 105.877 79.0417 102.8C78.2886 101.152 78.2886 101.152 76.4811 101.416C74.3939 101.702 72.3497 102.075 70.4992 103.218C66.0021 105.964 63.7643 111.655 64.9908 117.412C72.6725 117.39 80.3542 117.39 88.122 117.39ZM119.064 117.434C119.064 115.698 119.15 114.094 119.043 112.49C118.741 108.184 116.611 105.042 112.932 102.954C111.103 101.921 109.059 101.768 107.079 101.372C106.218 101.196 105.895 101.504 105.573 102.251C104.131 105.503 102.603 108.711 101.119 111.919C100.322 113.611 99.7199 113.765 98.2352 112.6C97.5682 112.073 96.8796 111.567 96.0189 110.886C95.9114 111.501 95.7822 111.897 95.8038 112.293C95.9329 113.699 96.1911 115.083 96.2772 116.467C96.3202 117.236 96.5784 117.434 97.31 117.412C103.787 117.39 110.264 117.39 116.74 117.39C117.472 117.434 118.203 117.434 119.064 117.434ZM85.2602 110.007C86.874 108.755 88.3587 107.59 89.9295 106.36C87.0892 103.723 84.335 101.152 81.6022 98.5816C80.5479 99.7462 80.5479 99.7462 81.1289 101.021C81.7744 102.427 82.4199 103.811 83.0654 105.217C83.7755 106.799 84.4856 108.337 85.2602 110.007ZM99.139 110.007C100.559 106.931 101.958 103.943 103.335 100.955C103.916 99.7022 103.873 99.5704 102.754 98.6476C100.021 101.196 97.267 103.767 94.4697 106.382C96.0405 107.59 97.5467 108.777 99.139 110.007ZM93.7811 117.39C93.609 115.918 93.4368 114.578 93.2647 113.259C92.5331 113.259 91.9091 113.259 91.2205 113.259C91.0699 114.622 90.8978 115.984 90.7257 117.39C91.8015 117.39 92.7268 117.39 93.7811 117.39ZM90.4244 109.282C90.7041 110.139 91.3066 110.579 92.1243 110.623C92.985 110.667 93.652 110.249 94.0393 109.348C93.4368 108.865 92.8344 108.403 92.1888 107.898C91.6079 108.381 91.0484 108.821 90.4244 109.282Z" fill="#04C0C0"/>
<path d="M85.0237 139.319C85.1743 138.374 85.368 137.187 85.5831 136.001C85.6907 135.408 85.6047 134.968 85.1313 134.529C84.3566 133.826 83.6466 133.057 82.915 132.331C82.1834 131.606 81.9252 130.749 82.2264 129.761C82.5277 128.794 83.2593 128.311 84.206 128.157C85.2604 127.981 86.2932 127.849 87.3476 127.717C87.864 127.651 88.2083 127.454 88.445 126.926C88.8538 125.959 89.3487 125.037 89.8006 124.092C90.2524 123.147 90.9625 122.554 92.0169 122.554C93.0282 122.554 93.7167 123.147 94.1686 124.048C94.6205 124.993 95.1154 125.916 95.5242 126.882C95.7609 127.454 96.1267 127.651 96.6862 127.717C97.6329 127.827 98.5582 127.981 99.5049 128.113C100.538 128.245 101.398 128.662 101.764 129.717C102.13 130.815 101.743 131.716 100.947 132.485C100.237 133.166 99.5695 133.914 98.8379 134.551C98.386 134.946 98.3 135.386 98.4075 135.935C98.6012 137.034 98.7949 138.132 98.967 139.231C99.1176 140.176 98.8164 140.989 98.0418 141.538C97.2886 142.087 96.4495 142.153 95.6103 141.692C94.7065 141.208 93.7598 140.769 92.8776 140.22C92.2536 139.824 91.7587 139.868 91.1562 140.242C90.2094 140.813 89.2626 141.34 88.2513 141.78C86.6375 142.483 84.9591 141.296 85.0237 139.319ZM96.3204 139.121C96.1267 138.022 96.0191 137.056 95.8039 136.133C95.5027 134.792 95.847 133.738 96.8798 132.837C97.5684 132.222 98.1709 131.475 98.8809 130.727C97.9342 130.574 97.0519 130.376 96.1912 130.332C94.685 130.244 93.7813 129.475 93.2218 128.069C92.8991 127.256 92.4687 126.487 92.0169 125.564C91.4789 126.663 91.0271 127.585 90.6182 128.508C90.1448 129.563 89.3917 130.134 88.2513 130.266C87.24 130.376 86.2287 130.574 85.1528 130.749C85.992 131.628 86.7451 132.419 87.5197 133.188C88.2083 133.87 88.488 134.661 88.2943 135.649C88.0792 136.748 87.9285 137.869 87.7349 139.121C88.7677 138.572 89.693 138.11 90.5967 137.583C91.5865 136.99 92.5333 137.012 93.5231 137.605C94.3623 138.11 95.2875 138.572 96.3204 139.121Z" fill="#04C0C0"/>
<path d="M129.091 139.363C129.091 141.362 127.391 142.483 125.82 141.758C124.745 141.252 123.755 140.615 122.679 140.132C122.356 139.978 121.84 140 121.517 140.132C120.57 140.549 119.666 141.077 118.763 141.582C117.859 142.087 116.955 142.197 116.095 141.56C115.234 140.945 114.997 140.044 115.191 138.989C115.363 138.022 115.492 137.034 115.686 136.045C115.815 135.43 115.75 134.946 115.234 134.485C114.481 133.826 113.792 133.057 113.061 132.354C112.308 131.606 112.028 130.728 112.351 129.717C112.673 128.728 113.469 128.267 114.438 128.113C115.406 127.959 116.374 127.827 117.343 127.717C117.945 127.651 118.375 127.432 118.634 126.795C118.999 125.85 119.494 124.949 119.946 124.026C120.377 123.103 121.087 122.532 122.076 122.51C123.131 122.488 123.841 123.081 124.293 124.048C124.766 125.015 125.196 126.004 125.734 126.948C125.907 127.256 126.315 127.586 126.66 127.651C127.628 127.871 128.639 127.959 129.629 128.091C130.662 128.223 131.523 128.662 131.867 129.717C132.211 130.772 131.867 131.65 131.071 132.398C130.361 133.079 129.694 133.826 128.962 134.463C128.489 134.88 128.381 135.32 128.489 135.935C128.747 137.209 128.941 138.418 129.091 139.363ZM126.423 139.099C126.229 137.891 126.1 136.836 125.885 135.781C125.648 134.661 126.014 133.804 126.81 133.035C127.542 132.31 128.209 131.541 128.962 130.728C128.037 130.574 127.133 130.376 126.229 130.31C124.788 130.222 123.927 129.475 123.389 128.157C123.045 127.322 122.614 126.509 122.141 125.564C121.582 126.729 121.087 127.695 120.635 128.662C120.183 129.629 119.473 130.134 118.44 130.244C117.407 130.376 116.353 130.552 115.234 130.728C116.052 131.585 116.783 132.354 117.536 133.101C118.246 133.804 118.569 134.595 118.375 135.627C118.16 136.726 118.01 137.847 117.816 139.099C118.677 138.638 119.451 138.308 120.14 137.847C121.495 136.924 122.787 136.946 124.142 137.869C124.809 138.33 125.584 138.66 126.423 139.099Z" fill="#04C0C0"/>
<path d="M54.9207 139.297C55.0713 138.374 55.2649 137.187 55.4801 136.001C55.5877 135.408 55.5016 134.968 55.0282 134.529C54.2536 133.826 53.5435 133.057 52.8119 132.331C52.0804 131.606 51.8221 130.749 52.1234 129.761C52.4246 128.794 53.1562 128.311 54.103 128.157C55.1574 127.981 56.1902 127.849 57.2445 127.717C57.761 127.651 58.1052 127.476 58.3419 126.926C58.7508 125.937 59.2672 124.993 59.7406 124.004C60.1924 123.081 60.9025 122.532 61.9138 122.532C62.8821 122.532 63.5922 123.059 64.0225 123.96C64.4959 124.927 65.0123 125.872 65.4212 126.882C65.6579 127.454 66.0237 127.651 66.5831 127.717C67.5299 127.827 68.4551 127.981 69.4019 128.113C70.4347 128.245 71.2954 128.662 71.6612 129.717C72.027 130.815 71.6612 131.716 70.8436 132.485C70.1335 133.166 69.4665 133.914 68.7349 134.551C68.283 134.946 68.1969 135.386 68.3045 135.935C68.5197 137.034 68.6918 138.132 68.8425 139.231C68.9931 140.154 68.7133 140.923 67.9818 141.472C67.2286 142.043 66.411 142.153 65.5503 141.714C64.8832 141.384 64.1732 141.099 63.5707 140.659C62.3872 139.758 61.3329 139.824 60.1709 140.681C59.5039 141.164 58.7292 141.516 57.9546 141.824C56.4054 142.439 54.8561 141.23 54.9207 139.297ZM57.5673 139.121C58.6432 138.55 59.5899 138.088 60.4937 137.561C61.4404 137.034 62.3227 137.034 63.2694 137.561C64.1947 138.088 65.1414 138.55 66.1743 139.099C65.9806 137.891 65.83 136.836 65.6364 135.781C65.4212 134.661 65.7655 133.804 66.5616 133.035C67.2932 132.331 67.9602 131.54 68.7133 130.727C67.7881 130.596 66.9274 130.376 66.0452 130.332C64.539 130.244 63.6352 129.453 63.0758 128.069C62.753 127.256 62.3227 126.487 61.8708 125.586C61.3113 126.728 60.838 127.695 60.3861 128.662C59.9342 129.629 59.2242 130.134 58.1913 130.244C57.1585 130.376 56.1041 130.552 55.0498 130.706C55.8029 131.519 56.4914 132.31 57.223 133.035C57.9761 133.782 58.3204 134.617 58.1052 135.715C57.9116 136.792 57.761 137.847 57.5673 139.121Z" fill="#04C0C0"/>
<path d="M91.6512 89.1554C90.7044 89.1554 89.4995 88.628 88.4666 87.6393C87.9932 87.1779 87.7996 86.6505 88.2515 86.1012C88.7033 85.5519 89.2413 85.6617 89.7792 86.0792C91.5867 87.4855 92.7701 87.4635 94.5991 85.9913C95.094 85.5958 95.6104 85.486 96.0623 85.9694C96.5357 86.4747 96.4066 87.024 95.9547 87.5074C94.9864 88.5621 93.5448 89.1993 91.6512 89.1554Z" fill="#04C0C0"/>
<path d="M86.8956 78.8947C87.5841 78.9166 88.1436 79.4879 88.1436 80.191C88.1436 80.8942 87.4981 81.5314 86.8095 81.5094C86.1209 81.4874 85.583 80.8942 85.583 80.191C85.583 79.444 86.164 78.8727 86.8956 78.8947Z" fill="#04C0C0"/>
<path d="M97.1163 78.8506C97.8694 78.8506 98.4073 79.4219 98.4073 80.1909C98.3858 80.916 97.8479 81.4653 97.1378 81.4653C96.4277 81.4653 95.8252 80.8501 95.8468 80.125C95.8683 79.4219 96.4277 78.8506 97.1163 78.8506Z" fill="#04C0C0"/>
<defs>
<linearGradient id="paint0_linear" x1="128.527" y1="164.577" x2="65.0386" y2="30.886" gradientUnits="userSpaceOnUse">
<stop stop-color="#F1F1F1" stop-opacity="0.87"/>
<stop offset="1" stop-color="#F4F4F4" stop-opacity="0.52"/>
</linearGradient>
</defs>
</svg>
