<svg width="194" height="196" viewBox="0 0 194 196" fill="none" xmlns="http://www.w3.org/2000/svg">
<path d="M128.659 42.1366C102.244 46.1176 81.2812 78.2114 62.4985 97.1063C43.6524 116.135 24.6384 123.467 0.000201583 133.691C46.7847 150.509 100.431 147.025 144.771 124.233C154.712 119.137 164.366 112.923 171.529 104.38C178.889 95.7679 183.288 84.4402 181.679 73.3684C180 62.0997 172.073 52.2817 162.054 46.8694C152.035 41.457 139.987 40.3169 128.659 42.1366Z" fill="url(#paint0_linear)"/>
<path d="M98.2842 53.0222C100.991 53.6219 103.675 54.2216 106.381 54.7991C114.881 56.6427 123.381 58.464 131.881 60.2853C132.91 60.5074 133.715 60.9961 133.939 62.1067C134.14 63.0395 133.849 63.8169 133.089 64.3722C132.708 64.6388 132.239 64.7942 131.791 64.9053C130.673 65.1718 129.51 65.3717 128.391 65.6605C128.145 65.7271 127.832 66.1047 127.832 66.3268C127.787 70.7691 127.787 75.2114 127.832 79.6536C127.832 79.898 128.123 80.2756 128.369 80.3644C130.36 81.2084 131.545 82.6744 131.635 84.8289C131.724 86.628 131.724 88.4493 131.657 90.2485C131.59 92.1142 130.293 93.2914 128.414 93.3359C127.183 93.3581 125.976 93.3581 124.745 93.3359C122.889 93.2914 121.591 92.0254 121.547 90.204C121.502 88.516 121.524 86.8279 121.547 85.1399C121.591 83.0298 122.598 81.4972 124.499 80.5421C124.745 80.4088 125.081 80.1201 125.081 79.898C125.103 75.4335 125.103 70.969 125.103 66.349C121.681 67.082 118.326 67.815 114.881 68.548C115.664 71.2577 116.38 73.9231 117.207 76.5441C118.527 80.7864 118.549 85.1176 117.946 89.4489C117.744 90.8926 117.163 92.2919 116.693 93.6912C116.536 94.2021 116.603 94.4686 116.984 94.9129C117.521 95.5348 118.057 96.3344 118.124 97.1118C118.281 98.9109 118.236 100.71 118.169 102.531C118.124 103.997 116.961 105.197 115.507 105.463C115.038 105.552 114.568 105.574 114.054 105.641C113.986 106.574 113.986 107.529 113.83 108.44C113.338 111.127 111.929 113.282 109.558 114.703C107.254 116.058 104.95 117.435 102.534 118.59C98.6645 120.478 94.7725 120.323 90.9476 118.324C89.091 117.346 87.2569 116.258 85.4004 115.281C81.7991 113.371 79.965 110.439 80.0097 106.374C80.0097 106.152 79.9873 105.907 79.965 105.641C79.4952 105.597 79.0479 105.552 78.6229 105.485C76.9901 105.219 75.8046 103.975 75.7598 102.331C75.7151 100.666 75.7375 99.022 75.7598 97.3561C75.7598 96.1345 76.4085 95.246 77.415 94.5131C76.9901 93.4469 76.6769 92.3808 76.1624 91.3813C74.7533 88.6715 74.6862 85.7618 74.7756 82.8077C74.9098 79.1206 76.2295 75.7 77.2137 72.2128C77.4374 71.4354 78.0413 71.1467 78.8242 71.3022C79.5176 71.4354 79.9426 72.0796 79.7413 72.8792C79.3387 74.5228 78.8466 76.122 78.3992 77.7435C78.3098 78.0322 78.2427 78.321 78.1308 78.6986C83.7675 80.2978 89.4266 81.8526 95.1527 83.4518C95.1527 79.7203 95.1527 76.0776 95.1527 72.3905C92.5804 71.7908 90.0081 71.1911 87.4135 70.6136C78.69 68.7034 69.9666 66.7933 61.2431 64.9053C60.1918 64.6832 59.3195 64.239 59.0734 63.084C58.8497 62.1289 59.1405 61.3071 59.9458 60.7518C60.326 60.4852 60.8181 60.352 61.2655 60.2631C72.6954 57.8865 84.1254 55.5099 95.5553 53.1333C95.6448 53.1111 95.7119 53.0444 95.779 53C96.6066 53.0222 97.4566 53.0222 98.2842 53.0222ZM82.7386 89.7598C82.6938 89.9819 82.6715 90.0486 82.6715 90.1374C82.6715 95.7347 82.6491 101.332 82.6938 106.929C82.7162 109.528 84.0135 111.416 86.2503 112.682C88.2858 113.837 90.3436 114.992 92.4239 116.08C95.533 117.657 98.6645 117.657 101.751 116.014C103.72 114.97 105.643 113.837 107.589 112.771C109.983 111.438 111.235 109.417 111.258 106.707C111.28 101.443 111.302 96.1567 111.258 90.8926C111.235 88.0051 109.356 86.2948 106.471 86.3615C103.384 86.4059 100.32 86.4948 97.2553 86.5392C96.6961 86.5392 96.1145 86.4725 95.5777 86.3393C93.5646 85.8062 91.5739 85.2287 89.516 84.6734C88.2411 87.6942 86.0043 89.4044 82.7386 89.7598ZM63.6812 62.5065C63.6812 62.5731 63.6812 62.6397 63.6812 62.7064C63.8154 62.7508 63.9496 62.7952 64.0838 62.8174C73.6796 64.8831 83.2754 66.9487 92.8712 69.0366C94.9067 69.4808 96.875 69.7696 98.9553 69.2809C103.899 68.1259 108.887 67.1042 113.852 66.0381C117.856 65.1718 121.882 64.3278 125.908 63.4616C127.094 63.2172 128.257 62.9285 129.42 62.6842C129.286 62.5065 129.197 62.462 129.085 62.4398C119.221 60.2853 109.334 58.1752 99.4473 56.0207C97.9487 55.6876 96.4501 55.6209 94.929 55.9541C87.7042 57.4867 80.4794 58.9749 73.2546 60.4852C70.056 61.1516 66.8574 61.8179 63.6812 62.5065ZM97.9487 83.4518C103.652 81.8748 109.289 80.2978 115.015 78.7208C114.076 75.4779 113.159 72.3239 112.242 69.081C107.388 70.1916 102.668 71.28 97.9487 72.3683C97.9487 76.0998 97.9487 79.7203 97.9487 83.4518ZM86.9214 83.9404C83.7899 83.0742 80.7031 82.2302 77.6164 81.3639C76.9901 85.3842 78.0861 90.937 79.9873 93.2914C79.9873 92.4696 79.9873 91.6922 79.9873 90.937C79.9873 90.1596 79.965 89.4044 79.9873 88.627C80.0097 87.5831 80.4794 87.1389 81.5307 87.0945C81.8662 87.0722 82.1794 87.0945 82.5149 87.0722C84.5504 86.9168 86.0043 85.895 86.9214 83.9404ZM124.209 87.4054C124.209 88.2272 124.209 89.0713 124.186 89.8931C124.186 90.404 124.365 90.6705 124.902 90.6705C125.998 90.6705 127.116 90.7149 128.212 90.6483C128.481 90.6261 128.906 90.2263 128.928 90.0042C128.973 88.2939 128.995 86.5614 128.906 84.8511C128.839 83.6739 127.698 82.741 126.535 82.741C125.349 82.7632 124.253 83.785 124.209 85.0066C124.186 85.8062 124.209 86.628 124.209 87.4054ZM113.964 92.8694C115.888 89.0935 115.686 85.2953 115.463 81.3639C112.779 82.1191 110.162 82.8299 107.544 83.5629C109.737 83.9404 111.437 84.9622 112.711 86.7169C114.009 88.4938 113.986 90.5816 113.964 92.8694ZM79.8979 96.7786C78.5334 96.6676 78.3992 96.8008 78.3992 98.0447C78.3992 99.2885 78.3992 100.532 78.3992 101.776C78.3992 102.82 78.7795 103.064 79.9202 102.753C79.9202 101.021 79.9202 99.2885 79.9202 97.556C79.9202 97.2895 79.8979 97.0674 79.8979 96.7786ZM113.986 102.798C115.284 102.953 115.507 102.776 115.53 101.665C115.53 100.421 115.53 99.1774 115.53 97.9558C115.53 96.7786 115.261 96.5787 113.986 96.8452C113.986 97.6226 113.986 98.4223 113.986 99.1997C113.986 100.399 113.986 101.576 113.986 102.798Z" fill="#04C0C0"/>
<path d="M97.1211 127.031C100.163 124.276 103.16 121.567 106.158 118.835C107.008 118.057 107.858 117.258 108.73 116.502C109.625 115.725 110.363 115.792 111.101 116.702C111.75 117.502 112.331 118.368 113.025 119.146C113.315 119.456 113.763 119.723 114.188 119.812C116.335 120.278 118.572 120.478 120.652 121.122C126.691 122.966 131.232 128.896 131.545 135.16C131.657 137.514 131.657 139.891 131.657 142.268C131.657 143.556 131.187 144 129.845 144C107.88 144 85.8925 144 63.9273 144C62.5405 144 62.0931 143.578 62.1155 142.201C62.1602 139.513 61.9813 136.781 62.3168 134.138C63.1891 127.031 68.7587 121.5 75.8941 120.367C77.3703 120.123 78.8466 119.923 80.3005 119.656C80.636 119.59 81.0163 119.368 81.24 119.123C81.8663 118.413 82.4255 117.635 83.007 116.902C83.9018 115.769 84.5952 115.725 85.6688 116.702C89.2924 119.99 92.9383 123.299 96.5619 126.586C96.7185 126.697 96.8975 126.831 97.1211 127.031ZM92.5357 133.494C91.5963 134.205 90.6792 134.893 89.7621 135.582C88.3082 136.67 87.6372 136.515 86.8767 134.893C84.9754 130.962 83.0741 127.008 81.2176 123.055C80.9268 122.433 80.6137 122.255 79.9426 122.411C78.9808 122.633 77.9966 122.722 77.0348 122.855C72.1586 123.543 68.4903 125.987 66.2088 130.362C65.3141 132.073 64.8444 133.894 64.822 135.826C64.7996 137.648 64.822 139.469 64.822 141.29C74.1046 141.29 83.2754 141.29 92.491 141.29C92.7147 139.358 92.916 137.492 93.2068 135.626C93.3186 134.805 93.2515 134.138 92.5357 133.494ZM128.973 141.29C128.973 139.735 128.995 138.247 128.973 136.781C128.839 130.895 126.244 126.431 120.742 124.076C118.572 123.144 116.067 122.988 113.718 122.522C113.517 122.477 113.114 122.899 112.98 123.188C111.056 127.186 109.155 131.206 107.231 135.204C106.627 136.47 105.867 136.648 104.749 135.804C103.742 135.071 102.78 134.316 101.617 133.45C101.416 134.027 101.103 134.494 101.125 134.938C101.326 137.048 101.617 139.158 101.863 141.29C110.922 141.29 119.892 141.29 128.973 141.29ZM84.5504 119.279C84.3044 119.59 84.1254 119.856 83.9241 120.034C83.2531 120.634 83.2307 121.233 83.6557 122.055C84.6175 123.854 85.4228 125.72 86.3175 127.564C87.1451 129.318 87.9951 131.073 88.8674 132.894C90.8581 131.384 92.7594 129.94 94.7054 128.474C91.3055 125.387 87.9503 122.344 84.5504 119.279ZM105.285 132.828C105.375 132.739 105.442 132.717 105.464 132.672C107.254 128.919 109.066 125.143 110.833 121.389C110.922 121.189 110.9 120.856 110.788 120.678C110.475 120.189 110.072 119.745 109.669 119.257C106.27 122.344 102.937 125.387 99.5369 128.474C101.505 129.985 103.406 131.406 105.285 132.828ZM99.2013 141.29C98.9777 139.536 98.7764 137.847 98.5527 136.159C97.5909 136.159 96.7185 136.159 95.8238 136.159C95.6225 137.892 95.4212 139.58 95.1975 141.29C96.5843 141.29 97.8145 141.29 99.2013 141.29ZM97.1211 130.007C96.3159 130.607 95.5778 131.184 94.8396 131.739C95.3541 133.05 96.1817 133.605 97.3895 133.516C98.4185 133.45 99.179 132.828 99.4474 131.784C98.7093 131.206 97.9487 130.651 97.1211 130.007Z" fill="#04C0C0"/>
<path d="M97.1209 103.664C98.5525 103.664 99.984 103.642 101.416 103.664C102.914 103.686 103.652 104.397 103.719 105.885C103.854 108.084 103.518 110.15 101.572 111.482C100.812 111.993 99.8722 112.438 98.9774 112.504C97.5235 112.637 95.9802 112.66 94.5486 112.326C92.3118 111.816 91.0369 110.194 90.7237 107.929C90.6342 107.24 90.5895 106.507 90.6342 105.796C90.7014 104.375 91.4842 103.642 92.9158 103.62C94.3249 103.642 95.7117 103.642 97.1209 103.664C97.1209 103.642 97.1209 103.664 97.1209 103.664ZM93.4079 106.352C93.0947 108.595 94.1907 109.928 96.3604 109.972C96.9196 109.994 97.5012 109.994 98.0604 109.972C100.23 109.905 101.348 108.528 100.923 106.352C98.4406 106.352 95.9354 106.352 93.4079 106.352Z" fill="#04C0C0"/>
<path d="M91.0371 92.1143C92.0212 92.1143 93.0054 92.0921 93.9896 92.1143C95.8461 92.1587 97.4119 93.4914 97.5461 95.335C97.6803 97.0452 97.6356 98.7555 97.6132 100.488C97.5908 101.31 97.0316 101.798 96.3159 101.776C95.5106 101.754 95.0185 101.288 94.9962 100.51C94.9514 99.1553 94.9738 97.7782 94.9738 96.4233C94.9514 95.024 94.7054 94.7797 93.2962 94.7797C91.5963 94.7797 89.8963 94.7797 88.1964 94.7797C87.078 94.7797 86.4517 94.291 86.4517 93.447C86.4517 92.603 87.0556 92.1365 88.1964 92.1143C89.1358 92.0921 90.0976 92.0921 91.0371 92.1143C91.0371 92.0921 91.0371 92.0921 91.0371 92.1143Z" fill="#04C0C0"/>
<path d="M104.435 94.6909C103.742 94.6909 103.071 94.7354 102.377 94.6687C101.527 94.6021 101.013 94.0246 101.08 93.2916C101.147 92.492 101.639 92.07 102.445 92.0478C103.831 92.0256 105.24 92.0256 106.627 92.07C107.388 92.0922 107.835 92.5364 107.925 93.2694C108.014 93.958 107.522 94.5799 106.739 94.6465C105.979 94.7132 105.196 94.6687 104.435 94.6687C104.435 94.6909 104.435 94.6909 104.435 94.6909Z" fill="#04C0C0"/>
<path d="M91.3278 98.1115C91.3278 98.9333 90.6568 99.5774 89.8516 99.5552C89.0239 99.533 88.3976 98.8666 88.42 98.0448C88.4424 97.2674 89.0687 96.6677 89.8516 96.6455C90.6792 96.6677 91.3278 97.3118 91.3278 98.1115Z" fill="#04C0C0"/>
<path d="M105.979 98.0446C105.979 98.822 105.285 99.5327 104.502 99.5105C103.697 99.5105 103.049 98.822 103.071 98.0002C103.093 97.2228 103.72 96.5786 104.48 96.5786C105.241 96.5564 105.979 97.2672 105.979 98.0446Z" fill="#04C0C0"/>
<defs>
<linearGradient id="paint0_linear" x1="128.527" y1="30.8859" x2="65.039" y2="164.577" gradientUnits="userSpaceOnUse">
<stop stop-color="#F1F1F1" stop-opacity="0.87"/>
<stop offset="1" stop-color="#F4F4F4" stop-opacity="0.52"/>
</linearGradient>
</defs>
</svg>
