<svg width="19" height="19" viewBox="0 0 19 19" fill="none" xmlns="http://www.w3.org/2000/svg">
<path d="M9.5 0.75C4.67514 0.75 0.75 4.67514 0.75 9.5C0.75 14.3249 4.67514 18.25 9.5 18.25C14.3249 18.25 18.25 14.3249 18.25 9.5C18.25 4.67514 14.3249 0.75 9.5 0.75ZM9.5 16.9007C5.41927 16.9007 2.09931 13.5807 2.09931 9.5C2.09931 5.41927 5.41927 2.09931 9.5 2.09931C13.5807 2.09931 16.9007 5.41927 16.9007 9.5C16.9007 13.5807 13.5807 16.9007 9.5 16.9007Z" fill="#FFA24F" stroke="#FFA24F" stroke-width="0.5"/>
<path d="M7.31223 9.29538L7.3117 9.29488C7.03843 9.03273 6.60349 9.03283 6.3302 9.28954C6.04755 9.55503 6.05025 9.99473 6.32272 10.2617L6.32272 10.2617L6.32398 10.2629L7.90428 11.7895L7.9049 11.7901C8.04249 11.922 8.2198 11.9869 8.39845 11.9869C8.57436 11.9869 8.75123 11.9214 8.88804 11.7903C8.88813 11.7902 8.88822 11.7901 8.88831 11.7901L12.6709 8.18265L12.6714 8.18214C12.9505 7.91448 12.9506 7.47982 12.677 7.21182L12.677 7.21181L12.6751 7.20999C12.4017 6.94767 11.9655 6.94758 11.692 7.20972C11.6919 7.20981 11.6918 7.2099 11.6917 7.20999L8.4031 10.348L7.31223 9.29538Z" fill="#FFA24F" stroke="#FFA24F" stroke-width="0.5"/>
</svg>
