<svg width="20" height="12" viewBox="0 0 20 12" fill="none" xmlns="http://www.w3.org/2000/svg">
<path d="M19.8939 10.8373C19.8697 10.7824 19.8471 10.7369 19.8262 10.7004C19.4792 10.0432 18.8161 9.23652 17.8372 8.28012L17.8166 8.25822L17.8062 8.24748L17.7957 8.23647H17.7852C17.341 7.79113 17.0597 7.49169 16.9419 7.33838C16.7263 7.04634 16.678 6.75074 16.7959 6.45122C16.8791 6.22492 17.1917 5.74701 17.733 5.01684C18.0178 4.62987 18.2433 4.31973 18.4098 4.08607C19.6109 2.40687 20.1316 1.33383 19.9719 0.86655L19.9098 0.757352C19.8681 0.691611 19.7606 0.63147 19.5872 0.576621C19.4134 0.521888 19.1914 0.512837 18.9206 0.549313L15.9216 0.571098C15.8731 0.552994 15.8037 0.554682 15.7133 0.576621C15.623 0.598561 15.5779 0.609569 15.5779 0.609569L15.5257 0.636993L15.4843 0.66994C15.4495 0.691726 15.4114 0.730043 15.3697 0.784815C15.3282 0.839395 15.2935 0.903448 15.2658 0.976438C14.9393 1.8598 14.5681 2.68111 14.1515 3.44032C13.8946 3.89303 13.6587 4.28536 13.4432 4.61756C13.2281 4.94964 13.0476 5.19431 12.9019 5.35115C12.756 5.50813 12.6244 5.6339 12.5061 5.72891C12.388 5.82395 12.2979 5.86411 12.2355 5.84942C12.173 5.83473 12.1141 5.82016 12.0583 5.80558C11.9612 5.73984 11.883 5.65043 11.8241 5.53728C11.765 5.42414 11.7252 5.28172 11.7043 5.11016C11.6836 4.93848 11.6714 4.79081 11.6679 4.66666C11.6646 4.54265 11.6661 4.36725 11.6732 4.14095C11.6804 3.91454 11.6836 3.76135 11.6836 3.68104C11.6836 3.40357 11.6888 3.10244 11.6991 2.77757C11.7096 2.4527 11.7181 2.1953 11.7252 2.00567C11.7323 1.81585 11.7356 1.61502 11.7356 1.4033C11.7356 1.19157 11.7233 1.02553 11.6991 0.905021C11.6752 0.784661 11.6384 0.667831 11.59 0.554567C11.5413 0.441418 11.4701 0.353891 11.3766 0.291756C11.2829 0.229696 11.1664 0.180448 11.0277 0.143857C10.6598 0.0562913 10.1912 0.00892239 9.62183 0.00155814C8.33067 -0.0130169 7.50103 0.0746635 7.1331 0.264485C6.98732 0.344686 6.8554 0.454267 6.73745 0.592884C6.61245 0.753555 6.59502 0.841236 6.68525 0.855658C7.10184 0.921284 7.39676 1.07827 7.57033 1.32647L7.63288 1.45799C7.68153 1.55288 7.73012 1.72088 7.77873 1.96175C7.82728 2.20262 7.85861 2.46908 7.87239 2.76096C7.90704 3.29399 7.90704 3.75027 7.87239 4.12983C7.83764 4.50955 7.80481 4.80516 7.77348 5.01688C7.74215 5.2286 7.69532 5.40016 7.63288 5.53153C7.57033 5.66294 7.52872 5.74325 7.50785 5.7724C7.48703 5.80155 7.46967 5.81993 7.45588 5.82714C7.36565 5.8635 7.2718 5.88202 7.17468 5.88202C7.0774 5.88202 6.95945 5.83086 6.82064 5.7286C6.68186 5.62635 6.53783 5.48589 6.38855 5.307C6.23927 5.12807 6.07091 4.87803 5.88341 4.55684C5.69605 4.23565 5.50165 3.85605 5.30032 3.41803L5.13375 3.10037C5.02962 2.89601 4.88738 2.59845 4.70688 2.20796C4.52627 1.8173 4.36663 1.43943 4.22785 1.0744C4.17237 0.921091 4.08904 0.804376 3.97798 0.72406L3.92586 0.691112C3.89121 0.661962 3.83559 0.631009 3.75929 0.598024C3.68288 0.565076 3.60315 0.541449 3.51977 0.526912L0.66657 0.548699C0.37501 0.548699 0.177183 0.61816 0.0730178 0.756892L0.0313298 0.822518C0.0105041 0.859071 0 0.917448 0 0.997803C0 1.07812 0.0208258 1.17669 0.0625138 1.29341C0.479029 2.32287 0.93198 3.3157 1.42137 4.27205C1.91075 5.22841 2.33602 5.99878 2.69692 6.58247C3.05789 7.16659 3.42582 7.71787 3.80072 8.23605C4.17562 8.75443 4.42378 9.08662 4.5452 9.23256C4.66676 9.37878 4.76224 9.48809 4.83165 9.56108L5.09203 9.82385C5.25863 9.9991 5.50329 10.209 5.82611 10.4535C6.149 10.6982 6.50646 10.939 6.89869 11.1765C7.29099 11.4136 7.74737 11.607 8.26808 11.7567C8.78873 11.9064 9.29548 11.9665 9.7884 11.9375H10.9859C11.2288 11.9155 11.4128 11.8352 11.5379 11.6966L11.5793 11.6417C11.6072 11.5981 11.6333 11.5304 11.6573 11.4393C11.6817 11.3481 11.6938 11.2475 11.6938 11.1382C11.6867 10.8243 11.7094 10.5414 11.7613 10.2896C11.8132 10.0378 11.8724 9.84802 11.9386 9.72018C12.0047 9.59245 12.0793 9.48467 12.1624 9.3973C12.2456 9.30974 12.3049 9.25669 12.3397 9.23843C12.3743 9.22006 12.4019 9.20759 12.4227 9.20012C12.5893 9.14174 12.7854 9.19827 13.0112 9.36999C13.2369 9.54156 13.4485 9.75339 13.6465 10.0052C13.8444 10.2572 14.0821 10.5399 14.3597 10.8537C14.6375 11.1677 14.8804 11.4011 15.0886 11.5546L15.2968 11.686C15.4358 11.7737 15.6163 11.854 15.8385 11.927C16.0603 12 16.2546 12.0182 16.4215 11.9818L19.0872 11.938C19.3508 11.938 19.556 11.8921 19.7015 11.801C19.8473 11.7098 19.9339 11.6093 19.9619 11.4999C19.9897 11.3904 19.9912 11.2662 19.9672 11.1274C19.9425 10.9889 19.9181 10.8921 19.8939 10.8373Z" fill="#333333"/>
</svg>
