<svg width="194" height="196" viewBox="0 0 194 196" fill="none" xmlns="http://www.w3.org/2000/svg">
<path d="M64.9065 153.326C91.3214 149.345 112.285 117.251 131.067 98.3566C149.913 79.3282 168.927 71.9961 193.566 61.7721C146.781 44.9541 93.1351 48.4381 48.7948 71.2303C38.8539 76.3264 29.1996 82.5403 22.0366 91.0826C14.6768 99.695 10.2784 111.023 11.8874 122.094C13.5663 133.363 21.4931 143.181 31.512 148.594C41.5309 154.006 53.5787 155.146 64.9065 153.326Z" fill="url(#paint0_linear)"/>
<path d="M50.041 142.796C50.451 141.491 50.6969 140.103 51.2914 138.901C53.1772 135.027 56.3543 132.872 60.5564 132.209C60.8433 132.168 61.1508 132.064 61.4378 132.064C63.0366 132.105 64.1435 131.36 64.9429 129.971C65.3324 129.288 65.4143 128.273 64.8609 127.692C63.3031 126.097 62.7496 124.15 62.7906 121.953C62.8316 120.213 62.8316 118.473 62.7906 116.732C62.7701 116.235 62.6266 115.697 62.4012 115.261C61.5198 113.604 60.5974 111.988 59.6955 110.351C59.511 110.02 59.306 109.667 59.265 109.295C58.8551 105.793 58.7936 102.333 61.1918 99.3705C62.6881 97.5265 64.5739 96.3456 66.8697 95.8898C67.3616 95.7862 67.6691 95.5997 67.9151 95.1232C68.612 93.7765 69.7804 93.0721 71.2562 93.1342C74.4129 93.3 77.6105 93.4036 80.7262 93.8387C86.3836 94.6052 90.3192 99.1218 90.6061 104.902C90.6676 106.125 90.6881 107.326 90.6061 108.549C90.5447 109.502 90.3192 110.434 90.1552 111.429C90.7701 111.429 91.5081 111.429 92.328 111.429C92.328 111.118 92.328 110.828 92.328 110.538C92.328 107.409 92.328 104.301 92.328 101.173C92.328 99.3912 93.1889 98.5417 94.9312 98.521C95.7511 98.521 96.571 98.521 97.3909 98.521C99.2152 98.5417 100.056 99.3705 100.056 101.194C100.056 104.281 100.056 107.388 100.056 110.475C100.056 110.766 100.056 111.076 100.056 111.429C100.855 111.429 101.613 111.429 102.454 111.429C102.454 111.097 102.454 110.766 102.454 110.434C102.454 104.322 102.454 98.2309 102.454 92.119C102.454 89.9229 103.212 89.1563 105.426 89.1563C106.164 89.1563 106.902 89.1356 107.64 89.1563C109.321 89.2185 110.202 90.1094 110.202 91.829C110.202 98.0445 110.202 104.26 110.202 110.475C110.202 110.807 110.202 111.118 110.202 111.47C110.571 111.511 110.878 111.491 111.165 111.553C111.842 111.698 112.231 112.112 112.19 112.837C112.149 113.542 111.719 113.915 111.022 113.998C110.755 114.018 110.469 114.018 110.202 114.018C103.417 114.018 96.653 114.018 89.8682 114.018C89.4173 114.018 88.7408 113.935 88.5564 114.163C88.1054 114.785 87.8184 115.551 87.5725 116.297C87.4495 116.67 87.552 117.105 87.552 117.644C87.8799 117.644 88.1669 117.644 88.4539 117.644C102.249 117.644 116.064 117.644 129.859 117.644C131.274 117.644 131.52 117.395 131.52 115.966C131.52 103.183 131.52 90.3787 131.52 77.5955C131.52 76.1866 131.253 75.9173 129.818 75.9173C112.826 75.9173 95.8126 75.9173 78.8199 75.9173C77.3646 75.9173 77.1186 76.1866 77.0981 77.6576C77.0981 81.532 77.0981 85.3856 77.0981 89.2599C77.0981 89.5707 77.1186 89.8814 77.0571 90.1715C76.9341 90.7516 76.5652 91.0831 75.9707 91.1245C75.3763 91.166 74.9458 90.9174 74.7613 90.3373C74.6589 90.0058 74.6384 89.6328 74.6384 89.2806C74.6384 85.3648 74.6384 81.4284 74.6384 77.5126C74.6384 74.8192 76.0322 73.4311 78.6764 73.4311C83.7394 73.4311 88.7818 73.4104 93.8448 73.4518C94.4802 73.4518 94.7467 73.286 94.9107 72.6645C95.6896 70.0747 98.0673 68.1479 100.691 68.065C103.581 67.9822 106.492 67.9821 109.382 68.0443C112.252 68.1272 114.527 69.9918 115.327 72.7681C115.49 73.3068 115.736 73.4104 116.249 73.4104C120.861 73.3896 125.493 73.3896 130.105 73.4104C132.155 73.4104 133.549 74.4463 133.918 76.2281C134 76.601 134 76.9946 134 77.3883C134 90.3165 134 103.245 134 116.173C134 118.721 132.627 120.11 130.105 120.13C125.616 120.13 121.148 120.13 116.659 120.13C116.351 120.13 116.064 120.13 115.634 120.13C115.634 121.021 115.634 121.85 115.634 122.699C115.634 124.833 115.122 125.6 113.092 126.408C113.236 126.698 113.379 126.988 113.523 127.278C117.212 134.012 120.922 140.724 124.632 147.458C124.796 147.748 124.96 148.038 125.063 148.349C125.288 148.991 125.083 149.509 124.51 149.82C123.936 150.13 123.382 150.048 122.972 149.509C122.788 149.281 122.644 148.991 122.501 148.722C118.565 141.594 114.63 134.447 110.755 127.299C110.346 126.553 109.915 126.284 109.095 126.346C108.214 126.408 107.312 126.366 106.328 126.366C106.328 126.802 106.328 127.133 106.328 127.444C106.328 134.322 106.328 141.201 106.328 148.079C106.328 149.426 106 149.944 105.139 149.965C104.258 149.985 103.868 149.385 103.868 148.059C103.868 141.18 103.868 134.302 103.868 127.423C103.868 127.092 103.868 126.781 103.868 126.366C102.064 126.366 100.343 126.346 98.6413 126.387C98.4773 126.387 98.2518 126.657 98.1698 126.843C97.2269 129.163 96.325 131.505 95.3821 133.825C95.1772 134.343 95.3821 134.571 95.7101 134.84C97.0835 135.897 98.1083 137.244 98.8873 138.797C99.2767 139.543 99.1127 140.268 98.4978 140.6C97.8624 140.973 97.1654 140.786 96.776 140.02C94.9722 136.498 91.959 134.944 88.1874 134.488C87.224 134.364 86.8141 134.571 86.4246 135.441C85.3177 137.969 84.1288 140.434 82.9605 142.941C82.1406 144.681 81.6076 144.806 80.1318 143.666C79.6603 143.293 79.1889 142.941 78.5739 142.61C78.3895 144.226 78.7994 145.78 78.9019 147.416C85.1742 147.416 91.4056 147.416 97.7189 147.416C97.7189 146.422 97.7189 145.448 97.7189 144.495C97.7394 143.542 98.2108 142.962 98.9488 142.962C99.6662 142.983 100.158 143.521 100.158 144.454C100.179 145.8 100.179 147.168 100.158 148.514C100.138 149.488 99.7072 149.923 98.7643 149.965C98.5798 149.965 98.3748 149.965 98.1903 149.965C82.776 149.965 67.3616 149.965 51.9473 149.965C51.1479 149.965 50.41 149.903 50 149.074C50.041 146.981 50.041 144.889 50.041 142.796ZM65.3119 110.703C65.3119 114.909 65.2504 119.136 65.3529 123.362C65.3939 124.854 66.3163 125.973 67.6076 126.719C69.104 127.589 70.6003 128.438 72.1171 129.246C74.2079 130.324 76.3192 130.324 78.41 129.226C79.8448 128.48 81.2182 127.651 82.6325 126.843C84.2928 125.89 85.1332 124.419 85.1537 122.513C85.1742 118.763 85.1742 114.992 85.1537 111.242C85.1537 109.315 83.9854 108.176 82.0586 108.176C79.7628 108.155 77.4671 108.155 75.1713 108.176C73.388 108.196 71.6252 108.217 70.0469 107.223C68.612 109.398 68.489 109.481 65.3119 110.703ZM87.5315 110.31C87.6135 110.33 87.675 110.351 87.757 110.372C87.8799 109.916 88.0849 109.46 88.1054 109.004C88.1464 107.596 88.1874 106.187 88.1259 104.778C87.9209 100.655 84.9283 97.0293 80.9107 96.4077C77.7335 95.9312 74.4949 95.8276 71.2767 95.6204C70.6003 95.579 70.0878 95.9519 69.9034 96.6771C69.5754 98.003 69.4524 98.1066 68.0996 98.2309C65.1069 98.5003 62.5857 100.427 61.9092 103.328C61.5198 104.964 61.5403 106.725 61.6223 108.404C61.6632 109.15 62.2577 109.875 62.6061 110.621C62.8726 108.362 62.8726 108.383 65.0044 108.114C66.2753 107.969 67.1772 107.306 67.7101 106.125C67.9356 105.627 67.8536 105.192 67.6691 104.633C67.2796 103.514 67.0337 102.312 66.8697 101.132C66.8082 100.779 67.0542 100.22 67.3411 99.992C67.6281 99.7641 68.1611 99.7227 68.53 99.8263C69.1245 99.992 69.2474 100.572 69.2884 101.152C69.4524 104.177 70.9897 105.648 74.0029 105.648C76.6061 105.648 79.1889 105.648 81.7921 105.648C84.9283 105.669 86.8346 107.223 87.5315 110.31ZM52.5007 147.437C58.9575 147.437 65.3119 147.437 71.7482 147.437C71.8507 145.78 72.3426 144.184 72.1376 142.34C71.3587 142.941 70.7848 143.376 70.2108 143.811C69.0015 144.723 68.366 144.578 67.7101 143.21C66.5212 140.662 65.3324 138.134 64.1435 135.586C63.5285 134.26 63.5286 134.26 62.1347 134.467C61.7042 134.529 61.2738 134.592 60.8433 134.654C57.3792 135.234 54.7965 137.036 53.3206 140.331C52.2958 142.589 52.5212 144.972 52.5007 147.437ZM93.0864 132.976C93.9473 130.8 94.8492 128.563 95.7306 126.304C95.8126 126.118 95.7511 125.745 95.6076 125.6C94.8697 124.875 94.6032 123.984 94.6442 122.969C94.6647 122.036 94.6442 121.125 94.6442 120.172C92.246 120.172 89.9707 120.172 87.593 120.172C87.593 120.752 87.593 121.311 87.593 121.85C87.634 123.901 87.224 125.786 85.8507 127.382C85.7072 127.547 85.6457 127.817 85.5842 128.045C85.0717 129.661 86.1581 130.676 87.0395 131.733C87.142 131.857 87.3675 131.878 87.552 131.919C89.3353 132.25 91.1596 132.603 93.0864 132.976ZM97.0835 120.151C97.0835 121.104 97.0835 121.953 97.0835 122.803C97.0835 123.797 97.1654 123.86 98.1698 123.86C100.24 123.86 102.31 123.86 104.381 123.86C106.963 123.86 109.567 123.86 112.149 123.86C112.58 123.86 113.113 123.901 113.133 123.259C113.174 122.223 113.133 121.187 113.133 120.13C107.763 120.151 102.474 120.151 97.0835 120.151ZM107.701 111.47C107.701 104.819 107.701 98.2724 107.701 91.7254C106.758 91.7254 105.877 91.7254 104.996 91.7254C104.996 98.3345 104.996 104.902 104.996 111.47C105.918 111.47 106.779 111.47 107.701 111.47ZM97.3909 73.3068C102.536 73.3068 107.701 73.3068 112.867 73.3068C112.416 71.7943 111.104 70.5927 109.587 70.5512C106.615 70.4684 103.643 70.4684 100.671 70.5512C99.1127 70.5927 97.7189 71.8772 97.3909 73.3068ZM68.0176 129.806C67.9356 129.909 67.8536 130.013 67.7716 130.096C70.2723 132.416 72.7731 134.716 75.2943 137.036C77.8155 134.716 80.2548 132.478 82.6735 130.22C82.8375 130.075 82.899 129.826 83.022 129.64C80.5212 130.759 78.369 132.437 75.5198 132.52C72.6296 132.603 70.3543 131.132 68.0176 129.806ZM94.8492 101.049C94.8492 104.571 94.8492 108.01 94.8492 111.449C95.7921 111.449 96.6735 111.449 97.5549 111.449C97.5549 107.948 97.5549 104.509 97.5549 101.049C96.6325 101.049 95.7716 101.049 94.8492 101.049ZM66.4187 132.209C65.7218 132.706 65.7218 133.204 66.0703 133.887C67.0542 135.855 67.9561 137.865 68.8785 139.854C69.0835 140.289 69.2884 140.724 69.5344 141.222C70.7848 140.248 71.9531 139.357 73.1625 138.425C70.8668 136.332 68.653 134.281 66.4187 132.209ZM81.0747 141.222C82.2635 138.673 83.3499 136.249 84.5388 133.867C84.8873 133.141 84.8463 132.665 84.1698 132.188C81.9356 134.26 79.7218 136.311 77.4466 138.404C78.6559 139.378 79.8038 140.268 81.0747 141.222ZM76.4627 147.437C76.3192 146.36 76.1962 145.344 76.0732 144.35C75.5608 144.35 75.1098 144.35 74.5974 144.35C74.4744 145.386 74.3719 146.38 74.2489 147.437C75.0073 147.437 75.6837 147.437 76.4627 147.437ZM74.0029 140.973C74.8228 142.154 75.9707 142.133 76.5857 140.994C75.0278 139.647 75.4788 139.751 74.0029 140.973Z" fill="#04C0C0"/>
<path d="M122.726 110.703C122.726 111.325 122.747 111.905 122.726 112.485C122.685 113.293 122.214 113.79 121.558 113.811C120.881 113.832 120.369 113.334 120.307 112.547C120.266 111.946 120.307 111.345 120.307 110.745C119.774 110.662 119.344 110.62 118.934 110.496C117.192 110.04 115.982 108.528 115.88 106.725C115.839 105.979 116.228 105.42 116.864 105.316C117.581 105.192 118.094 105.565 118.278 106.331C118.668 107.885 119.016 108.155 120.594 108.155C121.312 108.155 122.009 108.175 122.726 108.155C123.915 108.113 124.591 107.45 124.714 106.269C124.735 106.041 124.735 105.834 124.735 105.606C124.755 103.348 124.161 102.747 121.947 102.747C121.271 102.747 120.574 102.747 119.897 102.706C118.073 102.581 116.454 101.421 116.105 99.598C115.859 98.2928 115.839 96.8425 116.105 95.5165C116.454 93.6726 117.95 92.6367 120.287 92.3259C120.287 91.8494 120.266 91.3314 120.287 90.8135C120.307 89.7568 120.758 89.2181 121.558 89.2389C122.337 89.2596 122.726 89.7775 122.747 90.7927C122.747 91.29 122.747 91.7665 122.747 92.2637C123.341 92.3673 123.854 92.4295 124.345 92.5745C125.965 93.0718 127.092 94.5428 127.174 96.2417C127.215 97.0704 126.846 97.6091 126.17 97.6919C125.473 97.7955 124.981 97.4226 124.776 96.6146C124.407 95.1229 124.059 94.8535 122.501 94.8328C121.763 94.8328 121.025 94.8121 120.287 94.8535C119.16 94.9157 118.504 95.4751 118.36 96.6146C118.278 97.2154 118.278 97.837 118.36 98.4171C118.504 99.5773 119.18 100.157 120.328 100.22C121.332 100.282 122.357 100.22 123.362 100.323C125.432 100.53 126.99 102.126 127.133 104.239C127.215 105.254 127.256 106.311 127.031 107.285C126.498 109.419 124.981 110.475 122.726 110.703Z" fill="#04C0C0"/>
<path d="M100.998 87.0636C102.638 85.4061 104.196 83.8315 105.815 82.2155C105.528 82.1948 105.262 82.1741 104.975 82.1534C104.319 82.0912 103.909 81.6975 103.848 81.0346C103.786 80.3716 104.114 79.8122 104.77 79.7707C106.266 79.6879 107.763 79.6671 109.259 79.75C109.935 79.7915 110.222 80.3923 110.222 81.0967C110.222 82.1741 110.222 83.2514 110.222 84.3288C110.222 85.3025 109.771 85.8827 109.034 85.9241C108.296 85.9448 107.824 85.3854 107.763 84.4117C107.763 84.3288 107.742 84.2459 107.722 84.0594C107.496 84.2459 107.312 84.3909 107.168 84.5567C105.549 86.1934 103.93 87.8302 102.29 89.4669C101.388 90.3785 100.855 90.3785 99.9325 89.4462C99.4201 88.9283 98.9076 88.3689 98.3337 87.768C98.0672 88.0166 97.8623 88.2031 97.6573 88.4103C95.751 90.3371 93.8652 92.2432 91.9794 94.1493C91.7744 94.3565 91.5489 94.5844 91.303 94.7501C90.7905 95.0816 90.2371 95.0402 89.8066 94.6051C89.3762 94.17 89.2942 93.6313 89.6426 93.0926C89.7861 92.8647 89.9911 92.6576 90.1756 92.4711C92.4508 90.1506 94.7261 87.8509 97.0014 85.5512C98.0262 84.5152 98.5182 84.5152 99.5431 85.5512C100.035 86.0484 100.527 86.5664 100.998 87.0636Z" fill="#04C0C0"/>
<path d="M75.1511 124.626C74.0032 124.606 73.0398 124.15 72.2609 123.321C71.7689 122.803 71.6665 122.202 72.1174 121.622C72.5274 121.083 73.2448 120.98 73.8597 121.498C74.8026 122.306 75.6635 122.327 76.6474 121.56C77.2829 121.063 77.9593 121.208 78.3692 121.788C78.7997 122.409 78.6562 122.99 78.1233 123.487C77.2829 124.274 76.299 124.647 75.1511 124.626Z" fill="#04C0C0"/>
<path d="M71.6867 115.8C71.6867 116.525 71.0718 117.126 70.3749 117.084C69.6985 117.064 69.145 116.463 69.145 115.779C69.145 115.095 69.719 114.495 70.3954 114.495C71.0923 114.474 71.7072 115.075 71.6867 115.8Z" fill="#04C0C0"/>
<path d="M79.4554 114.454C80.1523 114.474 80.7058 115.034 80.7058 115.738C80.7058 116.463 80.1113 117.064 79.3939 117.043C78.7175 117.023 78.1436 116.463 78.1436 115.759C78.1436 115.034 78.738 114.433 79.4554 114.454Z" fill="#04C0C0"/>
<defs>
<linearGradient id="paint0_linear" x1="65.0388" y1="164.577" x2="128.527" y2="30.886" gradientUnits="userSpaceOnUse">
<stop stop-color="#F1F1F1" stop-opacity="0.87"/>
<stop offset="1" stop-color="#F4F4F4" stop-opacity="0.52"/>
</linearGradient>
</defs>
</svg>
