<svg width="194" height="196" viewBox="0 0 194 196" fill="none" xmlns="http://www.w3.org/2000/svg">
<path d="M64.9065 42.1366C91.3214 46.1176 112.285 78.2114 131.067 97.1063C149.913 116.135 168.927 123.467 193.566 133.691C146.781 150.509 93.1351 147.025 48.7948 124.233C38.8539 119.137 29.1996 112.923 22.0366 104.38C14.6768 95.7679 10.2784 84.4402 11.8874 73.3684C13.5663 62.0997 21.4931 52.2817 31.512 46.8694C41.5309 41.457 53.5787 40.3169 64.9065 42.1366Z" fill="url(#paint0_linear)"/>
<path d="M40 133.892C40.6217 132.276 41.0043 130.516 41.889 129.066C43.9215 125.691 47.1735 124.027 51.0471 123.646C52.4101 123.504 53.5339 123.123 54.2513 121.863C54.7056 121.079 54.7295 120.413 54.1556 119.795C52.7687 118.321 52.2188 116.562 52.2188 114.589C52.2427 112.521 52.2427 110.477 52.1949 108.408C52.1949 107.957 52.0036 107.481 51.7884 107.101C51.3819 106.388 50.9276 105.675 50.3776 105.08C48.5125 103.107 48.5125 100.706 48.656 98.2102C48.9429 93.7648 52.2427 90.2228 56.2837 89.4858C56.6185 89.4145 56.9533 89.0579 57.1685 88.7489C57.9097 87.6554 58.8901 86.8471 60.2291 86.9184C63.6246 87.0848 67.0678 87.1562 70.4154 87.7029C75.5325 88.5112 79.2866 93.1467 79.4062 98.3053C79.4301 99.375 79.3583 100.469 79.4301 101.538C79.5735 103.488 78.4497 104.89 77.3976 106.316C76.7281 107.196 76.465 108.099 76.489 109.193C76.5368 111.427 76.5607 113.71 76.3455 115.92C76.2499 116.99 75.8194 118.226 75.1021 119.011C73.6674 120.627 75.1021 123.385 77.0389 123.599C78.7845 123.789 80.4822 124.407 82.1799 124.954C83.2559 125.31 83.5907 126.119 83.232 126.951C82.8972 127.783 82.1082 127.902 81.0322 127.569C79.5018 127.093 77.9237 126.713 76.3455 126.356C76.1303 126.309 75.6999 126.642 75.5803 126.903C74.3848 129.352 73.2131 131.824 72.0414 134.272C71.2284 135.96 70.5111 136.127 69.0286 135.009C68.646 134.724 68.2873 134.439 67.7134 134.011C67.8808 135.414 68.0004 136.578 68.1917 137.743C68.2156 137.886 68.5503 138.1 68.7416 138.1C74.3608 138.1 79.9561 138.1 85.5753 138.076C85.5993 138.076 85.6232 138.052 85.7188 138.005C85.8145 135.699 85.9101 133.393 84.7623 131.206C84.4993 130.707 84.4276 129.993 84.5471 129.423C84.6189 129.114 85.2884 128.686 85.6471 128.71C86.1492 128.757 86.7709 129.066 87.0339 129.47C87.9904 130.968 88.4925 132.632 88.5882 134.391C88.6599 136.079 88.6599 137.743 88.636 139.431C88.636 140.382 88.11 140.881 87.1535 140.952C86.8666 140.976 86.5796 140.976 86.2927 140.976C71.6349 140.976 56.9772 140.976 42.2955 140.976C41.363 140.976 40.5021 140.905 40.0478 139.93C40 137.933 40 135.913 40 133.892ZM59.2727 101.063C58.5314 102.323 57.288 103.321 55.5664 103.749C55.3512 103.797 55.136 104.248 55.136 104.51C55.1121 108.004 55.1121 111.475 55.1121 114.97C55.1121 116.61 55.8772 117.822 57.288 118.63C58.651 119.415 60.0139 120.152 61.3769 120.889C63.4094 121.935 65.4658 121.935 67.4982 120.841C68.7655 120.176 69.985 119.439 71.2523 118.749C72.8544 117.87 73.6196 116.515 73.6435 114.708C73.6435 111.214 73.6674 107.743 73.6435 104.248C73.6435 102.537 72.6153 101.562 70.8937 101.538C68.6699 101.538 66.4222 101.586 64.1984 101.515C62.5964 101.467 61.0421 101.229 59.2727 101.063ZM76.2977 102.394C76.3694 102.394 76.4411 102.37 76.5129 102.37C76.5129 100.968 76.6085 99.5652 76.489 98.1626C76.202 94.5731 74.4087 91.7442 70.9415 90.8884C67.5461 90.0564 63.9593 90.0801 60.4443 89.7949C60.1574 89.7711 59.6792 90.2465 59.5596 90.6031C59.0814 91.9344 58.9379 92.1008 57.4793 92.2196C56.212 92.3385 55.0642 92.7664 54.0839 93.5509C51.9318 95.2624 50.7841 98.8996 51.5971 101.586C51.6927 101.895 51.9318 102.18 52.1231 102.513C52.6253 101.229 52.8883 101.039 54.2034 100.992C54.2991 100.992 54.3947 100.992 54.4904 100.992C56.4033 100.873 57.3119 99.3275 56.6902 97.6159C56.3555 96.7125 56.1881 95.7141 56.1164 94.7632C56.0446 93.741 56.6902 93.0754 57.5271 93.0754C58.388 93.0754 58.914 93.6935 58.9618 94.7395C59.0814 97.3306 60.4922 98.6856 63.0746 98.6856C65.7766 98.6856 68.4786 98.6619 71.2045 98.7094C73.4044 98.7569 75.0065 99.8029 75.9868 101.776C76.0825 101.99 76.202 102.18 76.2977 102.394ZM61.3291 133.963C60.6595 134.463 60.2291 134.772 59.7987 135.104C58.4119 136.15 57.6706 135.96 56.9054 134.368C55.9012 132.252 54.8969 130.136 53.8926 128.02C53.0318 126.214 53.0318 126.214 51.0471 126.499C44.9497 127.355 42.0803 132.062 43.0128 138.1C48.919 138.1 54.849 138.1 60.8269 138.1C60.9943 136.769 61.1378 135.485 61.3291 133.963ZM64.4615 128.187C66.5418 126.285 68.5743 124.455 70.6067 122.6C70.5828 122.529 70.5589 122.434 70.535 122.363C66.6135 125.049 62.6681 125.239 58.5792 122.814C60.4922 124.597 62.429 126.356 64.4615 128.187ZM59.0097 132.109C60.0378 131.325 60.9943 130.612 61.9986 129.827C59.9422 127.973 57.9575 126.166 55.7816 124.193C55.7577 124.669 55.6381 124.954 55.7338 125.168C56.7859 127.45 57.8858 129.732 59.0097 132.109ZM73.1653 124.455C73.0935 124.431 72.9979 124.407 72.9261 124.383C70.9415 126.19 68.9568 127.973 66.9244 129.827C67.9526 130.612 68.909 131.325 69.9133 132.085C71.0371 129.708 72.1132 127.45 73.1653 125.192C73.2609 125.001 73.1653 124.716 73.1653 124.455ZM65.2745 138.1C65.1788 137.363 65.1549 136.745 65.0354 136.127C65.0114 135.96 64.7245 135.699 64.581 135.723C64.3658 135.746 64.055 135.96 64.0072 136.127C63.8637 136.769 63.8398 137.41 63.768 138.1C64.2702 138.1 64.7245 138.1 65.2745 138.1ZM64.4615 131.562C64.1267 131.824 63.8398 132.038 63.505 132.299C64.1984 132.917 64.7723 132.965 65.394 132.323C65.0593 132.038 64.7962 131.824 64.4615 131.562Z" fill="#04C0C0"/>
<path d="M113.624 141C106.283 141 98.9658 141 91.625 141C89.6881 141 89.2816 140.643 89.3534 138.741C89.449 136.531 89.3056 134.249 89.8555 132.157C91.075 127.45 94.3987 124.787 99.1571 123.813C99.6592 123.718 100.161 123.599 100.664 123.599C102.003 123.575 102.887 122.933 103.581 121.816C104.059 121.055 104.035 120.389 103.461 119.748C102.074 118.274 101.524 116.515 101.548 114.541C101.572 112.521 101.596 110.476 101.548 108.456C101.524 107.957 101.333 107.41 101.07 106.982C100.329 105.841 99.5158 104.747 98.7506 103.606C98.5115 103.274 98.2485 102.893 98.2006 102.513C97.6268 98.4716 97.8659 94.6443 101.19 91.6727C102.361 90.603 103.724 89.8898 105.302 89.557C105.876 89.4382 106.307 89.248 106.641 88.6537C107.263 87.5364 108.315 86.8232 109.606 86.8945C113.002 87.061 116.445 87.1323 119.793 87.679C124.862 88.4873 128.64 93.0991 128.783 98.1863C128.807 99.0659 128.76 99.9692 128.807 100.849C128.903 102.56 128.544 104.129 127.373 105.437C126.129 106.816 125.747 108.408 125.866 110.239C125.986 112.093 125.962 113.995 125.723 115.825C125.579 116.966 125.149 118.226 124.408 119.106C123.093 120.675 124.527 123.432 126.249 123.551C128.473 123.718 130.649 124.264 132.561 125.524C136.148 127.878 137.87 131.206 137.989 135.437C138.013 136.65 137.989 137.838 137.989 139.051C137.989 140.524 137.535 141 136.053 141C130.577 141 125.077 141 119.601 141C117.569 141 115.608 141 113.624 141ZM108.626 101.063C107.885 102.323 106.594 103.345 104.8 103.773C104.633 103.82 104.465 104.248 104.465 104.51C104.442 108.004 104.442 111.475 104.465 114.969C104.465 116.61 105.255 117.822 106.641 118.607C107.957 119.367 109.296 120.104 110.659 120.817C112.691 121.887 114.747 121.911 116.78 120.841C118.095 120.152 119.386 119.391 120.701 118.654C121.993 117.917 122.901 116.847 122.925 115.326C122.973 111.451 122.997 107.6 122.949 103.725C122.925 102.394 121.801 101.538 120.414 101.514C118.191 101.491 115.943 101.562 113.719 101.491C112.069 101.467 110.443 101.229 108.626 101.063ZM125.651 102.394C125.723 102.394 125.795 102.37 125.866 102.37C125.866 100.968 125.962 99.5651 125.842 98.1625C125.555 94.5729 123.762 91.7203 120.295 90.8645C116.899 90.0325 113.313 90.0562 109.798 89.7947C109.511 89.771 109.033 90.2464 108.913 90.603C108.459 91.8867 108.267 92.1244 106.928 92.2195C105.661 92.3146 104.513 92.7187 103.509 93.5032C101.285 95.2148 100.137 98.8519 100.95 101.586C101.046 101.895 101.285 102.18 101.333 102.228C101.883 101.8 102.361 101.372 102.935 101.063C103.246 100.896 103.676 101.015 104.059 100.968C105.804 100.777 106.665 99.256 106.091 97.6871C105.733 96.76 105.565 95.7378 105.494 94.7393C105.422 93.7171 106.068 93.0515 106.904 93.0515C107.741 93.0515 108.291 93.6696 108.339 94.7156C108.459 97.3543 109.869 98.6617 112.548 98.6855C115.226 98.6855 117.904 98.6617 120.582 98.7093C122.543 98.733 124.049 99.6126 125.101 101.277C125.292 101.609 125.46 102.014 125.651 102.394ZM92.2467 138.052C98.2724 138.052 104.226 138.052 110.18 138.052C110.348 136.721 110.491 135.461 110.659 133.963C110.061 134.415 109.654 134.7 109.248 135.009C107.741 136.15 107 135.984 106.211 134.32C105.207 132.228 104.226 130.16 103.246 128.068C102.361 126.214 102.385 126.214 100.353 126.499C96.8855 126.998 94.3031 128.686 92.8923 131.943C92.0554 133.892 92.1988 135.936 92.2467 138.052ZM117.521 138.052C123.403 138.052 129.214 138.052 135.048 138.052C135.048 136.959 135.096 135.96 135.048 134.938C134.905 132.608 134.068 130.588 132.346 128.947C130.649 127.331 128.544 126.76 126.297 126.404C125.364 126.261 125.029 126.523 124.695 127.307C123.619 129.708 122.447 132.062 121.323 134.439C120.606 135.913 119.841 136.103 118.549 135.152C118.119 134.819 117.665 134.486 117.067 134.035C117.21 135.508 117.354 136.745 117.521 138.052ZM107.909 122.838C109.846 124.597 111.782 126.38 113.791 128.187C114.843 127.236 115.895 126.309 116.923 125.358C117.928 124.454 118.932 123.527 119.936 122.6C119.912 122.529 119.864 122.458 119.841 122.386C115.943 125.073 111.974 125.263 107.909 122.838ZM122.495 124.169C120.271 126.19 118.31 127.973 116.254 129.827C117.258 130.588 118.215 131.301 119.243 132.085C120.367 129.708 121.467 127.45 122.543 125.168C122.638 124.954 122.519 124.668 122.495 124.169ZM108.363 132.109C109.415 131.301 110.372 130.588 111.352 129.851C109.272 127.973 107.311 126.19 105.087 124.169C105.087 124.716 104.992 125.025 105.111 125.263C106.163 127.497 107.239 129.732 108.363 132.109ZM113.098 138.052C113.624 138.052 114.102 138.052 114.628 138.052C114.556 137.363 114.508 136.768 114.389 136.198C114.341 136.008 114.054 135.722 113.887 135.722C113.695 135.722 113.384 135.96 113.337 136.15C113.193 136.745 113.169 137.386 113.098 138.052ZM112.858 132.299C113.552 132.917 114.126 132.989 114.747 132.323C114.389 132.062 114.102 131.824 113.791 131.586C113.504 131.8 113.217 132.014 112.858 132.299Z" fill="#04C0C0"/>
<path d="M64.4856 82.6633C66.518 82.1878 68.5027 81.3321 70.1287 79.882C71.0134 79.0975 71.8981 78.9548 73.022 79.1212C78.6412 80.0246 83.3757 78.313 87.345 74.3193C87.871 73.7963 87.871 73.4159 87.5363 72.7741C82.754 64.1448 85.0495 54.0655 93.0598 48.3364C101.477 42.322 113.887 44.7468 119.458 53.4712C124.36 61.1495 123.308 70.5395 116.828 76.958C116.35 77.4334 116.158 77.8376 116.469 78.4556C117.043 79.6205 117.545 80.8091 118.215 81.9026C118.789 82.8535 119.243 83.7568 118.597 84.8028C117.952 85.8487 116.947 85.9676 115.847 85.7774C112.906 85.2782 110.228 84.1847 107.837 82.4018C107.55 82.1878 107.096 81.9739 106.737 82.0214C100.162 82.9248 94.6141 80.9517 89.9991 76.2448C89.9274 76.1735 89.8557 76.126 89.7361 76.0309C89.5687 76.1735 89.4014 76.2924 89.2579 76.4588C84.6908 81.023 79.239 82.901 72.8068 82.0452C72.4481 81.9977 71.9938 82.1641 71.7068 82.378C69.1961 84.2798 66.3507 85.3733 63.2183 85.8487C62.2379 85.9914 61.4488 85.7061 60.8988 84.8741C60.3728 84.0421 60.4684 83.2338 60.9706 82.378C61.6879 81.0943 62.3335 79.7631 63.003 78.4319C63.29 77.8851 63.1226 77.4572 62.6683 77.0293C58.412 72.8454 56.6187 67.7344 57.0491 61.8389C57.5751 54.422 63.4574 47.5044 70.7743 45.6501C76.0109 44.3189 80.9367 45.0321 85.5755 47.7896C86.5081 48.3364 86.7711 49.0971 86.3885 49.8578C85.982 50.6423 85.1929 50.7374 84.1408 50.2857C82.3953 49.5488 80.6737 48.6692 78.8325 48.2175C70.3678 46.1969 61.3053 52.4252 60.0858 60.9831C59.2489 66.7835 60.9706 71.6806 65.3942 75.5792C66.1594 76.2448 66.4463 76.9818 66.1355 77.9326C65.5855 79.5016 65.0355 81.0943 64.4856 82.6633ZM115.058 82.6871C114.532 81.2845 114.054 79.9533 113.528 78.6458C112.978 77.2432 113.337 76.2448 114.508 75.1751C118.908 71.1338 120.51 66.0228 119.243 60.2462C117.402 51.8784 109.654 46.6961 101.142 48.1224C94.7575 49.1922 90.4774 52.9957 88.6123 59.1289C86.795 65.1433 88.3014 70.5633 92.8207 74.9611C96.6226 78.6696 101.261 80.0008 106.522 79.1212C107.646 78.9311 108.507 79.1212 109.391 79.9057C110.97 81.3321 112.93 82.1641 115.058 82.6871Z" fill="#04C0C0"/>
<path d="M74.7675 52.4253C75.987 52.8056 77.326 52.9721 78.426 53.5901C81.2953 55.1829 81.8214 58.7724 79.6694 61.4349C79.0716 62.1719 78.426 62.9088 77.7086 63.5031C76.3696 64.5491 75.724 65.8565 75.7718 67.5919C75.7957 68.6616 75.3175 69.042 74.2414 69.042C73.4045 69.042 72.9263 68.6616 72.8785 67.8058C72.7589 65.6188 73.2611 63.6695 75.0544 62.2194C75.724 61.6726 76.3696 61.1021 76.9195 60.4603C77.6847 59.5569 77.9716 58.5109 77.4456 57.3699C76.9434 56.2526 75.9392 55.8722 74.8153 55.7772C73.6197 55.6821 72.5676 56.0149 71.7307 56.9658C70.9656 57.8216 70.296 57.9404 69.5787 57.465C68.8853 56.9895 68.7418 56.0862 69.2918 55.1829C70.2482 53.5664 71.8264 52.9483 73.5958 52.7343C73.9784 52.6868 74.361 52.7343 74.7436 52.7343C74.7197 52.5917 74.7436 52.4966 74.7675 52.4253Z" fill="#04C0C0"/>
<path d="M74.265 71.3003C75.3888 71.3003 76.3453 72.2512 76.3213 73.3447C76.3213 74.462 75.2931 75.4604 74.1693 75.4366C73.1172 75.4129 72.2803 74.4382 72.3042 73.3209C72.352 72.1561 73.1889 71.3003 74.265 71.3003Z" fill="#04C0C0"/>
<path d="M64.6767 114.09C65.4658 114.09 66.2788 114.066 67.0679 114.09C67.9287 114.138 68.4787 114.661 68.5265 115.421C68.5743 116.23 68.0243 116.895 67.1396 116.919C65.4897 116.967 63.8398 116.967 62.1899 116.919C61.353 116.895 60.827 116.253 60.8509 115.493C60.8509 114.732 61.4008 114.185 62.2377 114.09C62.3095 114.09 62.3573 114.09 62.429 114.09C63.1464 114.09 63.9116 114.09 64.6767 114.09Z" fill="#04C0C0"/>
<path d="M70.7978 108.171C70.8217 108.979 70.1761 109.645 69.3631 109.645C68.6218 109.645 67.9523 109.003 67.9284 108.266C67.9045 107.529 68.5262 106.863 69.2674 106.816C70.0804 106.744 70.7739 107.362 70.7978 108.171Z" fill="#04C0C0"/>
<path d="M59.3206 106.863C60.1335 106.887 60.7552 107.529 60.7074 108.361C60.6596 109.122 60.014 109.74 59.2727 109.716C58.5315 109.692 57.8619 109.027 57.8619 108.29C57.838 107.505 58.5076 106.84 59.3206 106.863Z" fill="#04C0C0"/>
<path d="M113.815 117.252C112.595 117.228 111.424 116.753 110.467 115.778C109.846 115.136 109.822 114.304 110.396 113.733C111.017 113.139 111.711 113.092 112.356 113.638C113.385 114.542 114.365 114.518 115.441 113.686C116.134 113.139 116.828 113.306 117.378 113.924C117.88 114.47 117.808 115.302 117.21 115.897C116.326 116.776 115.226 117.228 113.815 117.252Z" fill="#04C0C0"/>
<path d="M120.295 109.003C120.319 109.764 119.625 110.477 118.86 110.477C118.119 110.477 117.473 109.835 117.449 109.098C117.426 108.314 117.999 107.696 118.765 107.648C119.578 107.577 120.271 108.219 120.295 109.003Z" fill="#04C0C0"/>
<path d="M110.276 109.074C110.276 109.882 109.63 110.5 108.817 110.5C108.052 110.476 107.43 109.882 107.406 109.121C107.382 108.361 108.052 107.648 108.817 107.648C109.582 107.624 110.276 108.289 110.276 109.074Z" fill="#04C0C0"/>
<path d="M103.7 72.2749C103.031 72.2749 102.361 72.2749 101.692 72.2749C99.8268 72.2511 98.6073 71.2051 98.6312 69.3985C98.6551 67.8533 98.0812 66.736 97.0531 65.6187C93.8967 62.148 94.0163 57.2509 97.1965 53.6138C99.9703 50.4521 105.039 49.8103 108.698 52.1637C113.361 55.159 114.198 61.7914 110.348 65.8089C109.391 66.7835 108.913 67.8057 108.937 69.1845C108.961 71.2527 107.813 72.2987 105.709 72.2987C105.039 72.2749 104.37 72.2749 103.7 72.2749ZM105.972 69.3985C106.665 65.5949 106.665 65.5949 108.22 63.9309C109.559 62.4808 110.085 60.8167 109.87 58.8674C109.583 56.3951 107.622 54.2794 105.063 53.7089C102.624 53.1621 99.8985 54.3507 98.5595 56.5378C97.2204 58.7486 97.3161 61.7438 99.0377 63.5268C100.616 65.167 101.644 66.9262 101.501 69.2558C101.501 69.3034 101.572 69.3509 101.62 69.4222C103.079 69.3985 104.513 69.3985 105.972 69.3985Z" fill="#04C0C0"/>
<path d="M103.676 77.0529C103.031 77.0529 102.409 77.0767 101.764 77.0529C100.974 77.0054 100.52 76.5061 100.472 75.7692C100.425 74.9847 100.855 74.3667 101.668 74.3191C103.055 74.2478 104.466 74.2478 105.852 74.3191C106.642 74.3429 107.048 74.9372 107.048 75.6741C107.048 76.4586 106.594 77.0054 105.757 77.0529C105.087 77.1004 104.394 77.0529 103.676 77.0529Z" fill="#04C0C0"/>
<defs>
<linearGradient id="paint0_linear" x1="65.0388" y1="30.8859" x2="128.527" y2="164.577" gradientUnits="userSpaceOnUse">
<stop stop-color="#F1F1F1" stop-opacity="0.87"/>
<stop offset="1" stop-color="#F4F4F4" stop-opacity="0.52"/>
</linearGradient>
</defs>
</svg>
