<svg width="30" height="30" viewBox="0 0 30 30" fill="none" xmlns="http://www.w3.org/2000/svg">
<path d="M17.656 14.9888L20.3072 12.3375C20.6738 11.97 20.6738 11.3775 20.3072 11.0119L18.9816 9.68534C18.6151 9.31974 18.0225 9.3188 17.656 9.68534L15.0038 12.3375L12.3535 9.68723C11.986 9.31974 11.3925 9.31974 11.026 9.68534L9.70034 11.0119C9.3338 11.3775 9.33474 11.9719 9.70222 12.3385L12.3525 14.9888L9.70684 17.6344C9.3403 18.0009 9.3403 18.5934 9.70684 18.96L11.0325 20.2866C11.399 20.6521 11.9915 20.6531 12.3581 20.2866L15.0037 17.641L17.668 20.3063C18.0355 20.6738 18.629 20.6738 18.9955 20.3072L20.3212 18.9816C20.6877 18.6151 20.6868 18.0216 20.3202 17.6541L17.656 14.9888ZM15 0C6.71527 0 0 6.71538 0 14.9991C0 23.2838 6.71527 29.9991 15 29.9991C23.2847 29.9991 30 23.2838 30 14.9991C30 6.71632 23.2846 0 15 0ZM15 27.1866C8.26879 27.1866 2.81255 21.7304 2.81255 14.9992C2.81255 8.26795 8.26879 2.8116 15 2.8116C21.7312 2.8116 27.1875 8.26785 27.1875 14.9991C27.1875 21.7303 21.7312 27.1866 15 27.1866Z" fill="white"/>
</svg>
