<svg width="8" height="16" viewBox="0 0 8 16" fill="none" xmlns="http://www.w3.org/2000/svg">
<path d="M1.30181 15.3419L1.30173 15.342C1.11698 15.5527 0.848284 15.5526 0.663832 15.3421L0.663672 15.3419C0.445436 15.0931 0.445453 14.6657 0.66366 14.4169L0.663668 14.4169L6.00324 8.3296L6.29246 7.99988L6.00324 7.67017L0.663894 1.58313C0.66387 1.5831 0.663846 1.58308 0.663822 1.58305C0.445542 1.334 0.445655 0.906666 0.663828 0.657933L0.663894 0.657858C0.848396 0.447427 1.11722 0.44731 1.30196 0.657933L1.30197 0.657936L7.33636 7.53748C7.4399 7.65558 7.5 7.82116 7.5 7.99985C7.5 8.17858 7.43977 8.34435 7.33629 8.46237C7.33628 8.46238 7.33626 8.46239 7.33625 8.46241L1.30181 15.3419Z" fill="white" stroke="white"/>
</svg>
