<svg width="50" height="50" viewBox="0 0 50 50" fill="none" xmlns="http://www.w3.org/2000/svg">
<path d="M50 25.0005C50 31.6782 47.3995 37.956 42.6777 42.6777C37.956 47.3995 31.6782 50 25.0005 50C18.3228 50 12.044 47.3995 7.32227 42.6777C2.60049 37.956 0 31.6782 0 25.0005C0 18.3228 2.60049 12.044 7.32227 7.32227C12.044 2.60049 18.3228 0 25.0005 0C31.6782 0 37.956 2.60049 42.6777 7.32227C47.3995 12.044 50 18.3228 50 25.0005Z" fill="white"/>
<path d="M49.9999 25.0005C49.9999 31.6782 47.3994 37.956 42.6776 42.6777C37.9558 47.3995 31.6781 50 25.0004 50V0C31.6781 0 37.9558 2.60049 42.6776 7.32227C47.3994 12.044 49.9999 18.3228 49.9999 25.0005Z" fill="#E6E5E4"/>
<path d="M43.6263 25.0004C43.6263 35.2703 35.2703 43.6253 25.0004 43.6253C14.7295 43.6253 6.37451 35.2703 6.37451 25.0004C6.37451 14.7295 14.7295 6.37451 25.0004 6.37451C35.2703 6.37451 43.6263 14.7295 43.6263 25.0004Z" fill="#04C0C0"/>
<path d="M43.6262 25.0004C43.6262 35.2703 35.2703 43.6253 25.0004 43.6253V6.37451C35.2703 6.37451 43.6262 14.7295 43.6262 25.0004Z" fill="#07A8A8"/>
<path d="M30.9292 22.8058L25.0006 28.7354L24.4588 29.2772C24.1684 29.5677 23.7879 29.7125 23.4064 29.7125H23.384C23.0084 29.7125 22.6329 29.5697 22.3463 29.2832L19.1551 26.091C18.5819 25.5188 18.5819 24.5897 19.1551 24.0167C19.7282 23.4436 20.6573 23.4435 21.2294 24.0167L23.3712 26.1575L25.0005 24.5282L28.8264 20.7023C29.4073 20.1214 30.3491 20.1214 30.9291 20.7023C31.5102 21.2831 31.5102 22.2249 30.9292 22.8058Z" fill="white"/>
<path d="M30.929 22.8059L25.0004 28.7355V24.5282L28.8262 20.7023C29.4072 20.1214 30.349 20.1214 30.929 20.7023C31.5099 21.2832 31.5099 22.225 30.929 22.8059Z" fill="#F5F0EB"/>
</svg>
