<svg width="28" height="22" viewBox="0 0 28 22" fill="none" xmlns="http://www.w3.org/2000/svg">
<path d="M18.2469 9.72442L18.2469 9.72442L12.4322 6.54282C12.0746 6.34717 11.6512 6.35448 11.3007 6.56216L11.3007 6.56217C10.95 6.77006 10.7404 7.13796 10.7404 7.54558V13.8542C10.7404 14.2599 10.9487 14.6271 11.2971 14.8352C11.4787 14.9438 11.6806 14.9985 11.8831 14.9985C12.0686 14.9985 12.2544 14.9526 12.4249 14.8608L18.2398 11.734L18.2399 11.734C18.6092 11.5352 18.8399 11.1512 18.8416 10.7315V10.7315C18.8431 10.3118 18.6152 9.92597 18.2469 9.72442ZM16.5464 10.723L12.4328 12.9351V8.47213L16.5464 10.723Z" fill="#333333" stroke="#333333" stroke-width="0.15"/>
<path d="M27.2012 5.69767L27.2013 5.6985C27.2092 5.7873 27.3952 7.88846 27.3954 9.9988V11.9683C27.3954 14.0787 27.2092 16.1798 27.2013 16.2686L27.2012 16.2703L27.2011 16.2703L27.1981 16.2972L27.198 16.2981C27.1849 16.4038 27.1148 16.9208 26.9379 17.5315C26.7616 18.1401 26.4765 18.8517 26.0283 19.339C24.9622 20.5119 23.7577 20.6397 23.1859 20.7004L23.185 20.7005L23.1849 20.7006C23.1305 20.7062 23.0821 20.7113 23.0394 20.717L23.0374 20.7172L23.0373 20.7172L22.9914 20.722L22.989 20.7223L22.989 20.7222C19.52 20.9745 14.2902 21.0097 14.1978 21.0102C14.1974 21.0102 14.1971 21.0102 14.1969 21.0102L14.1905 21.0104L14.1867 21.0105L14.1867 21.0104L14.1795 21.0102C13.9143 21.0064 7.61113 20.9122 5.5982 20.7207L5.595 20.7204L5.59501 20.7203L5.53416 20.7119L5.53147 20.7115L5.53148 20.7115C5.47255 20.7011 5.38542 20.6911 5.27999 20.6791L5.27388 20.6784L5.28241 20.6039L5.27388 20.6784L5.27135 20.6781C4.59297 20.6004 3.31054 20.4536 2.296 19.3438C1.82765 18.851 1.54032 18.1349 1.36715 17.523C1.19337 16.9091 1.1318 16.3899 1.12041 16.2834L1.1204 16.2834L1.119 16.2701L1.11886 16.2688C1.111 16.18 0.925 14.0787 0.925 11.9683V9.9988C0.925 7.88846 1.111 5.78711 1.11887 5.69849L1.11902 5.69678L1.11904 5.69678L1.12206 5.66988L1.12216 5.66892L1.12217 5.66892C1.13538 5.56322 1.20552 5.04614 1.38239 4.43549C1.55865 3.82692 1.84371 3.11528 2.29187 2.62814C3.37273 1.43926 4.58371 1.2995 5.15857 1.23315L5.15866 1.23314L5.15875 1.23313L27.2012 5.69767ZM27.2012 5.69767L27.2 5.68562L27.2 5.68523M27.2012 5.69767L27.2 5.68523M27.2 5.68523C27.1886 5.57709 27.127 5.04847 26.9527 4.4255C26.7789 3.80465 26.4904 3.07951 26.0195 2.58674C24.9414 1.43916 23.7177 1.29997 23.137 1.23392L23.137 1.23392L23.137 1.23392M27.2 5.68523L23.137 1.23392M23.137 1.23392C23.0891 1.22849 23.046 1.22354 23.0077 1.21844L23.0077 1.21841M23.137 1.23392L23.0077 1.21841M23.0077 1.21841L23.0056 1.21819M23.0077 1.21841L23.0056 1.21819M23.0056 1.21819L22.9596 1.21337L22.9596 1.21333M23.0056 1.21819L22.9596 1.21333M22.9596 1.21333L22.9573 1.21316M22.9596 1.21333L22.9573 1.21316M22.9573 1.21316C19.4959 0.961463 14.2812 0.925829 14.1665 0.925209L14.1633 0.925071L14.1634 0.924787M22.9573 1.21316L14.1634 0.924787M14.1634 0.924787L14.1568 0.925071M14.1634 0.924787L14.1568 0.925071M14.1568 0.925071L14.1537 0.925209L14.1568 0.925071ZM24.7793 18.1971L24.7796 18.1968C24.9799 17.979 25.1488 17.5861 25.2763 17.1743C25.4026 16.7664 25.4845 16.3528 25.5168 16.1029C25.5337 15.9096 25.7028 13.9096 25.7028 11.9683V9.9988C25.7028 8.02455 25.5284 5.99496 25.5162 5.85672C25.4838 5.5608 25.4037 5.13805 25.2802 4.73601C25.1557 4.33059 24.9908 3.95904 24.7949 3.75501L24.7944 3.75443L24.7882 3.7478L24.7881 3.74774C24.1355 3.0517 23.4272 2.97023 22.9453 2.91532L22.9452 2.91531L22.9424 2.91498C22.8955 2.90958 22.8514 2.90449 22.8107 2.8994C19.4325 2.65538 14.3523 2.61868 14.1601 2.61741C14.1599 2.61741 14.1598 2.6174 14.1596 2.6174L14.1538 2.61745C13.8766 2.61955 8.85528 2.65758 5.47745 2.8994C5.44203 2.90396 5.40404 2.90837 5.36422 2.91299L5.35291 2.9143L5.35287 2.91431C4.88563 2.96828 4.19717 3.04816 3.54088 3.76999L3.54059 3.77031C3.34869 3.97895 3.18301 4.35009 3.05505 4.75265C2.9282 5.15169 2.84193 5.5701 2.80332 5.86487C2.78611 6.06196 2.6174 8.0597 2.6174 9.9988V11.9683C2.6174 13.9382 2.79114 15.9633 2.80398 16.1096C2.83636 16.3995 2.91639 16.8144 3.03983 17.2101C3.1643 17.6091 3.32921 17.9762 3.52524 18.1804L3.52594 18.1811L3.54019 18.1964L3.54089 18.1971C4.12671 18.8415 4.88829 18.9307 5.46634 18.997C5.46638 18.997 5.46642 18.997 5.46645 18.997L5.45792 19.0715C5.57157 19.0843 5.67941 19.0968 5.77921 19.1131L24.7793 18.1971ZM24.7793 18.1971C24.1434 18.8968 23.4943 18.966 23.0067 19.0176M24.7793 18.1971L5.78871 19.0386C7.73372 19.2189 13.9207 19.3138 14.1955 19.3178C14.4382 19.3163 19.4836 19.2788 22.8429 19.036C22.8929 19.0298 22.9478 19.0237 23.0067 19.0176M23.0067 19.0176L23.0145 19.0922M23.0067 19.0176C23.0066 19.0176 23.0066 19.0176 23.0066 19.0176L23.0145 19.0922M23.0145 19.0922C22.955 19.0984 22.9 19.1044 22.8502 19.1107M23.0145 19.0922C23.506 19.0402 24.1794 18.9687 24.8348 18.2476L22.8502 19.1107M22.8502 19.1107C19.4847 19.354 14.4282 19.3914 14.1952 19.3928L22.8502 19.1107ZM14.1601 1L14.1555 1.0002H14.1647L14.1601 1Z" fill="#333333" stroke="#333333" stroke-width="0.15"/>
</svg>
