<svg width="12" height="23" viewBox="0 0 12 23" fill="none" xmlns="http://www.w3.org/2000/svg">
<path d="M11.5481 0.00478553L8.66986 0C5.43624 0 3.34653 2.22168 3.34653 5.66033V8.27012H0.452578C0.202506 8.27012 0 8.48021 0 8.73934V12.5206C0 12.7798 0.202736 12.9896 0.452578 12.9896H3.34653V22.531C3.34653 22.7902 3.54904 23 3.79911 23H7.5749C7.82497 23 8.02748 22.7899 8.02748 22.531V12.9896H11.4112C11.6613 12.9896 11.8638 12.7798 11.8638 12.5206L11.8652 8.73934C11.8652 8.61492 11.8174 8.49576 11.7326 8.40771C11.6479 8.31965 11.5324 8.27012 11.4123 8.27012H8.02748V6.05777C8.02748 4.99442 8.27201 4.45462 9.60873 4.45462L11.5477 4.4539C11.7975 4.4539 12 4.24381 12 3.98491V0.473768C12 0.21511 11.7977 0.00526409 11.5481 0.00478553Z" fill="#333333"/>
</svg>
